<svg width="446" height="484" viewBox="0 0 2160 284" fill="none" xmlns="http://www.w3.org/2000/svg">
<path id='res_pin2' class='hoverable' d="M889.171 122.169H-88.3346C-96.0605 122.169 -102.324 128.432 -102.324 136.158V161.914C-102.324 169.64 -96.0605 175.903 -88.3346 175.903H889.171C896.897 175.903 903.16 169.64 903.16 161.914V136.158C903.16 128.432 896.897 122.169 889.171 122.169Z" fill="#666666"/>
<path id='res_pin1' class='hoverable' d="M2163.64 122.169H1186.13C1178.41 122.169 1172.14 128.432 1172.14 136.158V161.914C1172.14 169.64 1178.41 175.903 1186.13 175.903H2163.64C2171.36 175.903 2177.63 169.64 2177.63 161.914V136.158C2177.63 128.432 2171.36 122.169 2163.64 122.169Z" fill="#666666"/>
<path d="M798.562 0.5625C777.083 0.5625 761.236 4.5719 749.094 11.125C749.041 11.153 748.99 11.19 748.938 11.219C730.891 20.2105 721.58 33.9309 715.031 48.6564C700.52 76.4097 692.918 107.751 659.219 117.75C657.905 118.14 656.597 118.497 655.281 118.875V165.094C656.598 165.473 657.904 165.86 659.219 166.25C723.966 185.462 672.156 283.438 798.562 283.438C799.298 283.438 800.09 283.405 800.875 283.376C802.302 283.405 803.742 283.438 805.219 283.438C835.433 283.438 908.325 257.813 936.406 257.813H1121.66C1149.74 257.813 1222.63 283.438 1252.84 283.438C1254.32 283.438 1255.76 283.404 1257.19 283.376C1257.97 283.406 1258.76 283.438 1259.5 283.438C1385.91 283.438 1334.1 185.462 1398.84 166.25C1400.16 165.86 1401.46 165.473 1402.78 165.094V118.875C1401.47 118.497 1400.16 118.14 1398.84 117.75C1365.14 107.751 1357.54 76.4097 1343.03 48.6564C1336.48 33.9309 1327.17 20.2105 1309.12 11.219C1309.07 11.19 1309.02 11.154 1308.97 11.125C1296.83 4.5719 1280.98 0.5625 1259.5 0.5625C1258.78 0.5625 1258.02 0.596512 1257.25 0.624512C1255.8 0.595512 1254.34 0.5625 1252.84 0.5625C1222.63 0.5625 1149.74 26.1875 1121.66 26.1875H936.406C908.325 26.1875 835.433 0.5625 805.219 0.5625C803.721 0.5625 802.26 0.596512 800.812 0.624512C800.046 0.595512 799.286 0.5625 798.562 0.5625Z" fill="#D9BB7A" stroke="#565248"/>
<path d="M798.562 0.5625C794.84 0.5625 791.3 0.67303 787.906 0.90625V283.188C791.313 283.351 794.856 283.438 798.562 283.438C799.298 283.438 800.09 283.404 800.875 283.375C802.302 283.404 803.742 283.438 805.219 283.438C817.353 283.438 836.391 279.29 856.625 274.344V9.65625C836.391 4.70984 817.353 0.5625 805.219 0.5625C803.721 0.5625 802.26 0.597 800.812 0.625C800.046 0.596 799.286 0.5625 798.562 0.5625Z" fill="#FF0000" stroke="#986601"/>
<path  d="M901.062 20.5625V263.438C915.317 260.172 927.921 257.812 936.406 257.812H969.75V26.1875H936.406C927.921 26.1875 915.317 23.828 901.062 20.5625Z" fill="#FF0000" stroke="#FF0000" stroke-width="0.99"/>
<path  d="M1014.19 26.1875V257.812H1082.88V26.1875H1014.19Z" fill="#A52A2A" stroke="#A52A2A" />
<path d="M1252.84 0.5625C1246.36 0.5625 1237.9 1.76927 1228.34 3.625V280.375C1237.9 282.231 1246.36 283.438 1252.84 283.438C1254.32 283.438 1255.76 283.403 1257.19 283.375C1257.97 283.405 1258.76 283.438 1259.5 283.438C1274.3 283.438 1286.64 282.091 1297.03 279.688V6C1286.84 2.56088 1274.57 0.5625 1259.5 0.5625C1258.78 0.5625 1258.02 0.597 1257.25 0.625C1255.8 0.596 1254.34 0.5625 1252.84 0.5625Z" fill="#C68401"/>
</svg>
