<?xml version="1.0" encoding="utf-8"?>
<!-- Generator: Adobe Illustrator 23.0.1, SVG Export Plug-In . SVG Version: 6.00 Build 0)  -->
<svg version="1.1" id="Ebene_1" xmlns="http://www.w3.org/2000/svg" xmlns:xlink="http://www.w3.org/1999/xlink" x="0px" y="0px"
	 viewBox="0 0 1080 1920" style="enable-background:new 0 0 1080 1920;" xml:space="preserve">
<style type="text/css">
	.st0{fill:#00660C;}
	.st1{fill:#AD9228;}
	.st2{fill:#A1965F;stroke:#A4A4A4;stroke-width:3;}
	.st3{fill:#5B5F67;}
	.st4{fill:#FFFFFF;}
</style>
<g>
	<rect x="248.31" y="175.02" class="st0" width="553.9" height="1349.13"/>
	<polygon class="st1" points="315.89,485.55 348.38,485.55 348.38,243.99 416.44,243.99 416.44,485.55 554.38,485.55 554.38,249.51 
		608.95,249.51 608.95,485.55 734.63,485.55 734.63,218.86 703.36,218.86 703.36,456.12 640.83,456.12 640.83,218.86 522.5,218.86 
		522.5,456.12 448.32,456.12 448.32,211.5 315.89,211.5 	"/>
	<rect x="550.48" y="839.31" width="229.91" height="304.71"/>
	<rect x="277.65" y="939.24" width="254.36" height="199.26"/>
	<rect x="301.51" y="538.89" class="st2" width="18.41" height="56.18"/>
	<rect x="331.93" y="538.7" class="st2" width="18.41" height="56.18"/>
	<rect x="363.64" y="538.79" class="st2" width="18.41" height="56.18"/>
	<rect x="394.05" y="538.6" class="st2" width="18.41" height="56.18"/>
	<rect x="425.47" y="538.7" class="st2" width="18.41" height="56.18"/>
	<rect x="588.93" y="567.22" class="st2" width="18.41" height="56.18"/>
	<rect x="625.93" y="567.03" class="st2" width="18.41" height="56.18"/>
	<rect x="662.93" y="567.12" class="st2" width="18.41" height="56.18"/>
	<rect x="348.15" y="644.86" class="st2" width="18.41" height="56.18"/>
	<rect x="394.05" y="644.67" class="st2" width="18.41" height="56.18"/>
	<rect x="439.95" y="644.76" class="st2" width="18.41" height="56.18"/>
	<rect x="555.84" y="664.99" class="st2" width="18.41" height="56.18"/>
	<rect x="591.51" y="665.08" class="st2" width="18.41" height="56.18"/>
	<rect x="665.43" y="682.14" class="st2" width="18.41" height="56.18"/>
	<rect x="714.95" y="682.23" class="st2" width="18.41" height="56.18"/>
	<rect x="565.04" y="762.89" class="st2" width="18.41" height="56.18"/>
	<rect x="598.14" y="762.7" class="st2" width="18.41" height="56.18"/>
	<rect x="631.24" y="762.8" class="st2" width="18.41" height="56.18"/>
	<rect x="664.34" y="762.61" class="st2" width="18.41" height="56.18"/>
	<rect x="697.44" y="762.7" class="st2" width="18.41" height="56.18"/>
	<rect x="730.54" y="762.7" class="st2" width="18.41" height="56.18"/>
	<rect x="370.87" y="821.45" class="st2" width="18.41" height="56.18"/>
	<rect x="420.38" y="821.55" class="st2" width="18.41" height="56.18"/>
	<g>
		<path class="st3" d="M309.82,1031.46c2.08-0.35,4.8-0.64,8.26-0.64c4.25,0,7.37,0.99,9.35,2.77c1.83,1.58,2.92,4.01,2.92,6.97
			c0,3.02-0.89,5.39-2.57,7.12c-2.27,2.42-5.98,3.66-10.19,3.66c-1.29,0-2.47-0.05-3.46-0.3v13.35h-4.3V1031.46z M314.12,1047.54
			c0.94,0.25,2.13,0.35,3.56,0.35c5.19,0,8.36-2.52,8.36-7.12c0-4.4-3.12-6.53-7.86-6.53c-1.88,0-3.31,0.15-4.05,0.35V1047.54z"/>
		<path class="st3" d="M335.19,1047.93c0-2.82-0.05-5.24-0.2-7.47h3.81l0.15,4.7h0.2c1.09-3.21,3.71-5.24,6.63-5.24
			c0.49,0,0.84,0.05,1.24,0.15v4.1c-0.45-0.1-0.89-0.15-1.48-0.15c-3.07,0-5.24,2.32-5.83,5.59c-0.1,0.59-0.2,1.29-0.2,2.03v12.76
			h-4.3V1047.93z"/>
		<path class="st3" d="M372.53,1052.23c0,8.85-6.13,12.71-11.92,12.71c-6.48,0-11.47-4.75-11.47-12.31
			c0-8.01,5.24-12.71,11.87-12.71C367.88,1039.92,372.53,1044.92,372.53,1052.23z M353.54,1052.48c0,5.24,3.02,9.2,7.27,9.2
			c4.15,0,7.27-3.91,7.27-9.3c0-4.05-2.03-9.2-7.17-9.2S353.54,1047.93,353.54,1052.48z"/>
		<path class="st3" d="M395.08,1063.51c-1.14,0.59-3.66,1.38-6.87,1.38c-7.22,0-11.92-4.9-11.92-12.21
			c0-7.37,5.04-12.71,12.86-12.71c2.57,0,4.85,0.64,6.03,1.24l-0.99,3.36c-1.04-0.59-2.67-1.14-5.04-1.14
			c-5.49,0-8.46,4.06-8.46,9.05c0,5.54,3.56,8.95,8.31,8.95c2.47,0,4.1-0.64,5.34-1.19L395.08,1063.51z"/>
		<path class="st3" d="M402.3,1053.22c0.1,5.88,3.86,8.31,8.21,8.31c3.12,0,4.99-0.54,6.63-1.24l0.74,3.12
			c-1.53,0.69-4.15,1.48-7.96,1.48c-7.37,0-11.77-4.85-11.77-12.07c0-7.22,4.25-12.91,11.23-12.91c7.81,0,9.89,6.87,9.89,11.28
			c0,0.89-0.1,1.58-0.15,2.03H402.3z M415.06,1050.11c0.05-2.77-1.14-7.07-6.03-7.07c-4.4,0-6.33,4.06-6.68,7.07H415.06z"/>
		<path class="st3" d="M424.06,1059.95c1.29,0.84,3.56,1.73,5.74,1.73c3.17,0,4.65-1.58,4.65-3.56c0-2.08-1.24-3.21-4.45-4.4
			c-4.3-1.53-6.33-3.91-6.33-6.78c0-3.86,3.12-7.02,8.26-7.02c2.42,0,4.55,0.69,5.88,1.48l-1.09,3.17c-0.94-0.59-2.67-1.38-4.9-1.38
			c-2.57,0-4.01,1.48-4.01,3.26c0,1.98,1.43,2.87,4.55,4.06c4.15,1.58,6.28,3.66,6.28,7.22c0,4.2-3.26,7.17-8.95,7.17
			c-2.62,0-5.04-0.64-6.73-1.63L424.06,1059.95z"/>
		<path class="st3" d="M443.64,1059.95c1.29,0.84,3.56,1.73,5.74,1.73c3.17,0,4.65-1.58,4.65-3.56c0-2.08-1.24-3.21-4.45-4.4
			c-4.3-1.53-6.33-3.91-6.33-6.78c0-3.86,3.12-7.02,8.26-7.02c2.42,0,4.55,0.69,5.88,1.48l-1.09,3.17c-0.94-0.59-2.67-1.38-4.9-1.38
			c-2.57,0-4.01,1.48-4.01,3.26c0,1.98,1.43,2.87,4.55,4.06c4.15,1.58,6.28,3.66,6.28,7.22c0,4.2-3.26,7.17-8.95,7.17
			c-2.62,0-5.04-0.64-6.73-1.63L443.64,1059.95z"/>
		<path class="st3" d="M485.48,1052.23c0,8.85-6.13,12.71-11.92,12.71c-6.48,0-11.47-4.75-11.47-12.31
			c0-8.01,5.24-12.71,11.87-12.71C480.83,1039.92,485.48,1044.92,485.48,1052.23z M466.49,1052.48c0,5.24,3.02,9.2,7.27,9.2
			c4.15,0,7.27-3.91,7.27-9.3c0-4.05-2.03-9.2-7.17-9.2S466.49,1047.93,466.49,1052.48z"/>
		<path class="st3" d="M490.97,1047.93c0-2.82-0.05-5.24-0.2-7.47h3.81l0.15,4.7h0.2c1.09-3.21,3.71-5.24,6.63-5.24
			c0.5,0,0.84,0.05,1.24,0.15v4.1c-0.45-0.1-0.89-0.15-1.48-0.15c-3.07,0-5.24,2.32-5.84,5.59c-0.1,0.59-0.2,1.29-0.2,2.03v12.76
			h-4.3V1047.93z"/>
	</g>
	<rect id="hc05_key_pin" class="hoverable" x="275.63" y="1383.7" width="40.96" height="293.24"/>
	<rect  id="hc05_vcc_pin" class="hoverable" x="367.29" y="1383.7" width="40.96" height="293.24"/>
	<rect  id="hc05_gnd_pin" class="hoverable" x="458.95" y="1383.7" width="40.96" height="293.24"/>
	<rect  id="hc05_txd_pin"  class="hoverable" x="550.61" y="1383.7" width="40.96" height="293.24"/>
	<rect id="hc05_rxd_pin" class="hoverable"  x="642.27" y="1383.7" width="40.96" height="293.24"/>
	<rect id="hc05_state_pin" class="hoverable"  x="733.93" y="1383.7" width="40.96" height="293.24"/>
	<g>
		<path class="st4" d="M744.98,1254.63c-1.19,1.93-2.18,4.75-2.18,7.71c0,4.4,2.32,6.97,5.69,6.97c3.12,0,4.9-1.78,6.63-6.28
			c1.93-5.44,4.75-8.8,9.45-8.8c5.19,0,9.05,4.3,9.05,10.78c0,3.41-0.79,5.88-1.63,7.37l-3.51-1.19c0.59-1.09,1.58-3.31,1.58-6.33
			c0-4.55-2.72-6.28-5-6.28c-3.12,0-4.65,2.03-6.43,6.63c-2.18,5.64-4.9,8.51-9.79,8.51c-5.14,0-9.59-3.81-9.59-11.67
			c0-3.21,0.94-6.73,2.13-8.51L744.98,1254.63z"/>
		<path class="st4" d="M770.55,1284.55h-6.87v6.23h-3.31v-6.23h-12.91c-2.97,0-4.65,0.84-4.65,3.26c0,1.14,0.15,1.98,0.3,2.52
			l-3.26,0.2c-0.35-0.84-0.59-2.18-0.59-3.86c0-2.03,0.64-3.66,1.83-4.7c1.29-1.24,3.41-1.68,6.23-1.68h13.06v-3.71h3.31v3.71h5.74
			L770.55,1284.55z"/>
		<path class="st4" d="M739.74,1308.93l3.02-0.35v-0.15c-1.88-1.33-3.56-3.91-3.56-7.32c0-4.85,3.41-7.32,6.87-7.32
			c5.79,0,8.95,5.14,8.9,14.39h0.5c1.98,0,5.54-0.54,5.54-5.44c0-2.22-0.69-4.55-1.78-6.23l2.87-0.99c1.29,1.98,2.13,4.85,2.13,7.86
			c0,7.32-5,9.1-9.79,9.1h-8.95c-2.08,0-4.1,0.1-5.74,0.4V1308.93z M751.96,1308.29c0.1-4.75-0.74-10.14-5.39-10.14
			c-2.82,0-4.15,1.88-4.15,4.1c0,3.12,1.98,5.09,4,5.79c0.45,0.15,0.94,0.25,1.38,0.25H751.96z"/>
		<path class="st4" d="M770.55,1324.56h-6.87v6.23h-3.31v-6.23h-12.91c-2.97,0-4.65,0.84-4.65,3.26c0,1.14,0.15,1.98,0.3,2.52
			l-3.26,0.2c-0.35-0.84-0.59-2.18-0.59-3.86c0-2.03,0.64-3.66,1.83-4.7c1.29-1.24,3.41-1.68,6.23-1.68h13.06v-3.71h3.31v3.71h5.74
			L770.55,1324.56z"/>
		<path class="st4" d="M750.92,1337.81c-5.88,0.1-8.31,3.86-8.31,8.21c0,3.12,0.54,5,1.24,6.63l-3.12,0.74
			c-0.69-1.53-1.48-4.15-1.48-7.96c0-7.37,4.85-11.77,12.07-11.77c7.22,0,12.91,4.25,12.91,11.23c0,7.81-6.87,9.89-11.28,9.89
			c-0.89,0-1.58-0.1-2.03-0.15V1337.81z M754.03,1350.57c2.77,0.05,7.07-1.14,7.07-6.03c0-4.4-4.06-6.33-7.07-6.68V1350.57z"/>
	</g>
	<g>
		<path class="st4" d="M678.08,1272.29c0.45,2.18,0.69,5.29,0.69,8.26c0,4.6-0.84,7.57-2.72,9.64c-1.48,1.68-3.76,2.62-6.33,2.62
			c-4.4,0-7.32-2.77-8.51-6.28h-0.15c-0.89,2.57-3.26,4.1-6.73,4.9c-4.65,1.09-7.86,1.88-9.15,2.57v-4.45
			c0.94-0.54,3.81-1.29,7.96-2.23c4.6-0.99,6.33-2.77,6.48-6.68v-4.06h-14.44v-4.3H678.08z M662.9,1276.59v4.4
			c0,4.6,2.52,7.52,6.33,7.52c4.3,0,6.18-3.12,6.23-7.67c0-2.08-0.2-3.56-0.4-4.25H662.9z"/>
		<path class="st4" d="M645.19,1317.39l7.37-4.25c2.82-1.73,4.65-2.82,6.58-3.86v-0.1c-1.93-0.94-3.71-1.88-6.63-3.61l-7.32-4.01
			v-4.95l16.86,10.19l16.47-9.79v5l-7.81,4.4c-2.18,1.24-3.86,2.18-5.64,3.07v0.15c1.98,0.94,3.51,1.78,5.64,3.02l7.81,4.55v4.95
			L662.3,1312l-17.11,10.39V1317.39z"/>
		<path class="st4" d="M678.08,1327.38c0.4,2.62,0.69,5.74,0.69,9.15c0,6.18-1.43,10.58-4.15,13.5c-2.72,2.97-6.58,4.7-11.97,4.7
			c-5.44,0-9.89-1.68-12.96-4.8c-3.12-3.12-4.8-8.26-4.8-14.74c0-3.07,0.15-5.64,0.4-7.81H678.08z M648.6,1331.68
			c-0.2,1.09-0.25,2.67-0.25,4.35c0,9.2,5.14,14.19,14.14,14.19c7.86,0.05,12.86-4.4,12.86-13.5c0-2.23-0.2-3.91-0.45-5.04H648.6z"
			/>
	</g>
	<g>
		<path class="st4" d="M588.29,1279.8v-10.14h3.66v24.68h-3.66v-10.19h-29.67v-4.35H588.29z"/>
		<path class="st4" d="M558.61,1317.39l7.37-4.25c2.82-1.73,4.65-2.82,6.58-3.86v-0.1c-1.93-0.94-3.71-1.88-6.63-3.61l-7.32-4.01
			v-4.95l16.86,10.19l16.47-9.79v5l-7.81,4.4c-2.18,1.24-3.86,2.18-5.64,3.07v0.15c1.98,0.94,3.51,1.78,5.64,3.02l7.81,4.55v4.95
			L575.72,1312l-17.11,10.39V1317.39z"/>
		<path class="st4" d="M591.5,1327.38c0.4,2.62,0.69,5.74,0.69,9.15c0,6.18-1.43,10.58-4.15,13.5c-2.72,2.97-6.58,4.7-11.97,4.7
			c-5.44,0-9.89-1.68-12.96-4.8c-3.12-3.12-4.8-8.26-4.8-14.74c0-3.07,0.15-5.64,0.4-7.81H591.5z M562.03,1331.68
			c-0.2,1.09-0.25,2.67-0.25,4.35c0,9.2,5.14,14.19,14.14,14.19c7.86,0.05,12.86-4.4,12.86-13.5c0-2.23-0.2-3.91-0.45-5.04H562.03z"
			/>
	</g>
	<g>
		<path class="st4" d="M470.14,1288.26c-0.69-1.93-1.83-5.74-1.83-10.24c0-5.04,1.29-9.2,4.4-12.46c2.77-2.87,7.22-4.65,12.41-4.65
			c9.94,0.05,17.21,6.87,17.21,18.05c0,3.86-0.84,6.87-1.53,8.31l-3.51-1.04c0.79-1.78,1.43-4.01,1.43-7.37
			c0-8.11-5.04-13.4-13.4-13.4c-8.46,0-13.45,5.09-13.45,12.86c0,2.82,0.4,4.75,0.89,5.74h9.94v-6.78h3.46v10.98H470.14z"/>
		<path class="st4" d="M468.66,1294.84h33.33v4.7l-16.86,10.68c-3.91,2.47-7.42,4.4-10.83,5.98l0.05,0.1c4.45-0.4,8.51-0.5,13.7-0.5
			h13.95v4.06h-33.33v-4.35l16.91-10.58c3.71-2.32,7.52-4.55,11.13-6.23l-0.05-0.15c-4.2,0.25-8.21,0.35-13.75,0.35h-14.24V1294.84z
			"/>
		<path class="st4" d="M501.54,1327.38c0.4,2.62,0.69,5.74,0.69,9.15c0,6.18-1.43,10.58-4.15,13.5c-2.72,2.97-6.58,4.7-11.97,4.7
			c-5.44,0-9.89-1.68-12.96-4.8c-3.12-3.12-4.8-8.26-4.8-14.74c0-3.07,0.15-5.64,0.4-7.81H501.54z M472.07,1331.68
			c-0.2,1.09-0.25,2.67-0.25,4.35c0,9.2,5.14,14.19,14.14,14.19c7.86,0.05,12.86-4.4,12.86-13.5c0-2.23-0.2-3.91-0.45-5.04H472.07z"
			/>
	</g>
	<g>
		<path class="st4" d="M374.1,1283.71l33.33-10.88v4.65l-16.42,5.19c-4.5,1.43-8.55,2.67-12.46,3.56v0.1
			c3.86,0.94,8.06,2.33,12.41,3.81l16.47,5.64v4.6l-33.33-11.92V1283.71z"/>
		<path class="st4" d="M375.19,1327.28c-0.79-1.58-1.58-4.75-1.58-8.8c0-9.4,5.93-16.47,16.86-16.47c10.43,0,17.51,7.07,17.51,17.41
			c0,4.15-0.89,6.77-1.48,7.91l-3.51-1.04c0.79-1.63,1.38-3.96,1.38-6.73c0-7.81-4.99-13.01-13.75-13.01
			c-8.16,0-13.4,4.7-13.4,12.81c0,2.62,0.54,5.29,1.38,7.02L375.19,1327.28z"/>
		<path class="st4" d="M375.19,1354.92c-0.79-1.58-1.58-4.75-1.58-8.8c0-9.4,5.93-16.47,16.86-16.47c10.43,0,17.51,7.07,17.51,17.41
			c0,4.15-0.89,6.77-1.48,7.91l-3.51-1.04c0.79-1.63,1.38-3.96,1.38-6.73c0-7.81-4.99-13.01-13.75-13.01
			c-8.16,0-13.4,4.7-13.4,12.81c0,2.62,0.54,5.29,1.38,7.02L375.19,1354.92z"/>
	</g>
	<g>
		<path class="st4" d="M320.86,1285.44v4.3h-16.07v0.15c1.29,0.89,2.47,1.78,3.56,2.62l12.51,10.19v5.34l-14.14-12.07l-19.19,13.01
			v-5.09l16.37-10.98l-3.66-3.17h-12.71v-4.3H320.86z"/>
		<path class="st4" d="M298.7,1314.52c-5.88,0.1-8.31,3.86-8.31,8.21c0,3.12,0.54,5,1.24,6.63l-3.12,0.74
			c-0.69-1.53-1.48-4.15-1.48-7.96c0-7.37,4.85-11.77,12.07-11.77c7.22,0,12.91,4.25,12.91,11.23c0,7.81-6.87,9.89-11.28,9.89
			c-0.89,0-1.58-0.1-2.03-0.15V1314.52z M301.82,1327.28c2.77,0.05,7.07-1.14,7.07-6.03c0-4.4-4.06-6.33-7.07-6.68V1327.28z"/>
		<path class="st4" d="M311.46,1338.45l-14.14,5.24c-1.58,0.54-3.46,1.14-4.9,1.53v0.1c1.43,0.45,3.26,0.94,4.99,1.53l14.04,4.75
			v4.6l-17.06-6.53c-8.21-3.12-12.41-5.24-14.98-8.21c-1.88-2.13-2.62-4.25-2.82-5.34l3.66-1.09c0.35,1.09,1.04,2.52,2.13,3.81
			c0.94,1.19,2.62,2.67,4.85,3.66c0.45,0.2,0.79,0.35,1.04,0.35s0.59-0.1,1.14-0.3l22.06-8.85V1338.45z"/>
	</g>
</g>
</svg>
