<svg width="500" height="900" viewBox="0 0 70 138" fill="none" xmlns="http://www.w3.org/2000/svg">
<path d="M34.1025 7.68723e-05C25.683 0.0109769 17.2665 0.0457363 8.84751 0.741896C8.84751 0.741896 0.506314 1.13692 0.0207135 5.3929C0.0207135 5.3929 -0.0950466 11.4108 0.220753 19.9379L0.0207135 130.808C0.219923 136.188 4.70111 137.223 19.8247 137.343L34.2357 137.601V137.61H34.4024H34.5775V137.601L48.9805 137.343C64.1045 137.223 68.5855 136.188 68.7845 130.808L68.5845 19.9379C68.9003 11.4112 68.7845 5.3929 68.7845 5.3929C68.2989 1.137 59.966 0.741896 59.966 0.741896C51.5463 0.0457163 43.122 0.0109569 34.702 7.68723e-05C34.5021 -0.000181128 34.3025 0.000312872 34.1025 7.68723e-05Z" fill="#171717"/>
<path d="M65.8631 11.1521H2.64111V122.872H65.8631V11.1521Z" fill="#FFFEFE"/>
<path d="M36.0672 6.41008C36.0672 7.4261 35.2436 8.24973 34.2276 8.24973C33.2116 8.24973 32.3879 7.4261 32.3879 6.41008C32.3879 5.39407 33.2116 4.57043 34.2276 4.57043C35.2436 4.57043 36.0672 5.39407 36.0672 6.41008Z" fill="url(#paint0_linear_581_88)"/>
<path d="M36.0672 6.36309C36.0672 7.3791 35.2436 8.20273 34.2276 8.20273C33.2116 8.20273 32.3879 7.3791 32.3879 6.36309C32.3879 5.34707 33.2116 4.52344 34.2276 4.52344C35.2436 4.52344 36.0672 5.34707 36.0672 6.36309Z" fill="url(#paint1_linear_581_88)"/>
<path d="M12.0322 6.44088C12.0322 6.96032 11.6111 7.3814 11.0916 7.3814C10.5722 7.3814 10.1511 6.96032 10.1511 6.44088C10.1511 5.92145 10.5722 5.50037 11.0916 5.50037C11.6111 5.50037 12.0322 5.92145 12.0322 6.44088Z" fill="url(#paint2_linear_581_88)"/>
<path d="M12.0451 6.43991C12.0451 6.95934 11.624 7.38042 11.1046 7.38042C10.5851 7.38042 10.1641 6.95934 10.1641 6.43991C10.1641 5.92047 10.5851 5.49939 11.1046 5.49939C11.624 5.49939 12.0451 5.92047 12.0451 6.43991Z" fill="url(#paint3_linear_581_88)"/>
<path d="M11.4672 6.45853C11.4672 6.68541 11.2886 6.86933 11.0683 6.86933C10.848 6.86933 10.6694 6.68541 10.6694 6.45853C10.6694 6.23165 10.848 6.04773 11.0683 6.04773C11.2886 6.04773 11.4672 6.23165 11.4672 6.45853Z" fill="#6378FF"/>
<rect x="3" y="11" width="63" height="4" fill="#366CAC"/>
<path d="M68.7544 17.2881V26.0994" stroke="#5A5A5A" stroke-width="0.64013"/>
<path d="M35.5764 6.41359C35.5764 7.15011 34.9793 7.74716 34.2428 7.74716C33.5063 7.74716 32.9092 7.15011 32.9092 6.41359C32.9092 5.67707 33.5063 5.08002 34.2428 5.08002C34.9793 5.08002 35.5764 5.67707 35.5764 6.41359Z" fill="#3D3D3D"/>
<path d="M50.8976 117.26L55.5152 117.277V119.26M12.9963 118.225L13.8569 119.402M13.8736 117.218L12.989 118.222L17.841 118.269C19.1351 118.287 18.6548 120.314 17.8243 120.102L15.4738 120.119M49.4973 118.194H54.3316L54.2816 120.044H49.5306L49.4973 118.194ZM30.8773 120.294L37.1452 120.327L37.1785 118.377L34.0279 117.16L30.9439 118.46L30.8773 120.294Z" stroke="#B39B9B" stroke-width="0.26672"/>
<path d="M49.3708 13.9295C49.5848 13.8878 49.6237 13.8961 49.7376 13.9295" stroke="white" stroke-width="0.26672"/>
<path d="M48.9128 13.3965C49.2518 13.0381 49.9241 13.0797 50.2297 13.3798" stroke="white" stroke-width="0.26672"/>
<path d="M48.4209 12.8904C49.1599 12.2403 50.0323 12.257 50.6797 12.8988" stroke="white" stroke-width="0.26672"/>
<path d="M48 12.3314C48.9224 11.4396 50.4116 11.5479 51.1423 12.2814" stroke="white" stroke-width="0.26672"/>
<path d="M51.2549 14.2964L51.2466 13.8964L51.7384 13.613L51.7301 14.2964H51.2549Z" fill="#F6F6F6"/>
<path d="M51.9551 14.2794L51.9884 13.2209L52.3802 12.9292V14.3045L51.9551 14.2794Z" fill="#F6F6F6"/>
<path d="M52.6431 14.2794L52.6764 12.5415L53.0681 12.2498V14.3044L52.6431 14.2794Z" fill="#F6F6F6"/>
<path d="M57.1786 13.5396V13.3159L58.1652 11.7549H58.3274V12.1013H58.2178L57.4724 13.2809V13.2984H58.801V13.5396H57.1786ZM58.2353 14V13.4716V13.3675V11.7549H58.494V14H58.2353ZM59.4047 13.7128C59.3507 13.7128 59.3043 13.6934 59.2655 13.6547C59.2268 13.616 59.2074 13.5695 59.2074 13.5155C59.2074 13.4614 59.2268 13.415 59.2655 13.3762C59.3043 13.3375 59.3507 13.3181 59.4047 13.3181C59.4588 13.3181 59.5052 13.3375 59.544 13.3762C59.5827 13.415 59.6021 13.4614 59.6021 13.5155C59.6021 13.5513 59.5929 13.5842 59.5747 13.6141C59.5571 13.6441 59.5334 13.6682 59.5034 13.6865C59.4742 13.704 59.4413 13.7128 59.4047 13.7128ZM59.4047 12.5771C59.3507 12.5771 59.3043 12.5577 59.2655 12.519C59.2268 12.4803 59.2074 12.4338 59.2074 12.3798C59.2074 12.3257 59.2268 12.2793 59.2655 12.2405C59.3043 12.2018 59.3507 12.1824 59.4047 12.1824C59.4588 12.1824 59.5052 12.2018 59.544 12.2405C59.5827 12.2793 59.6021 12.3257 59.6021 12.3798C59.6021 12.4156 59.5929 12.4485 59.5747 12.4784C59.5571 12.5084 59.5334 12.5325 59.5034 12.5508C59.4742 12.5683 59.4413 12.5771 59.4047 12.5771ZM60.0093 13.5396V13.3159L60.9959 11.7549H61.1582V12.1013H61.0485L60.3031 13.2809V13.2984H61.6317V13.5396H60.0093ZM61.0661 14V13.4716V13.3675V11.7549H61.3248V14H61.0661ZM62.7748 14.0307C62.6097 14.0307 62.469 13.9857 62.3528 13.8959C62.2366 13.8052 62.1478 13.6741 62.0864 13.5023C62.025 13.3298 61.9943 13.1215 61.9943 12.8775C61.9943 12.6348 62.025 12.4276 62.0864 12.2559C62.1485 12.0834 62.2377 11.9519 62.3539 11.8612C62.4708 11.7699 62.6111 11.7242 62.7748 11.7242C62.9386 11.7242 63.0785 11.7699 63.1947 11.8612C63.3116 11.9519 63.4008 12.0834 63.4622 12.2559C63.5243 12.4276 63.5554 12.6348 63.5554 12.8775C63.5554 13.1215 63.5247 13.3298 63.4633 13.5023C63.4019 13.6741 63.3131 13.8052 63.1969 13.8959C63.0807 13.9857 62.94 14.0307 62.7748 14.0307ZM62.7748 13.7895C62.9386 13.7895 63.0657 13.7106 63.1563 13.5527C63.247 13.3949 63.2923 13.1698 63.2923 12.8775C63.2923 12.6831 63.2714 12.5175 63.2298 12.3809C63.1889 12.2442 63.1297 12.1401 63.0522 12.0684C62.9755 11.9968 62.883 11.961 62.7748 11.961C62.6126 11.961 62.4858 12.041 62.3945 12.2011C62.3031 12.3604 62.2574 12.5859 62.2574 12.8775C62.2574 13.0719 62.2779 13.237 62.3188 13.373C62.3597 13.5089 62.4186 13.6123 62.4953 13.6832C62.5728 13.7541 62.666 13.7895 62.7748 13.7895Z" fill="white"/>
<rect id='ledon' x="12" y="92" width="17" height="5" rx="2.5" fill="#539443"/>
<path d="M53.314 14.2754L53.3493 11.9458L53.7641 11.6541V14.3005L53.314 14.2754Z" fill="#F6F6F6"/>
<path d="M15.2719 96V93.7549H15.5437V95.7588H16.5873V96H15.2719ZM17.0083 96V93.7549H18.3633V93.9961H17.2802V94.7547H18.2931V94.9958H17.2802V95.7588H18.3808V96H17.0083ZM19.5461 96H18.8533V93.7549H19.5768C19.7946 93.7549 19.9809 93.7999 20.1359 93.8897C20.2908 93.9789 20.4096 94.1072 20.4921 94.2745C20.5747 94.4412 20.616 94.6407 20.616 94.8731C20.616 95.1069 20.5744 95.3083 20.491 95.4771C20.4077 95.6452 20.2864 95.7745 20.1271 95.8652C19.9678 95.9551 19.7741 96 19.5461 96ZM19.1251 95.7588H19.5286C19.7142 95.7588 19.868 95.723 19.9901 95.6514C20.1121 95.5798 20.2031 95.4778 20.263 95.3455C20.323 95.2133 20.3529 95.0558 20.3529 94.8731C20.3529 94.6918 20.3233 94.5358 20.2641 94.405C20.2049 94.2734 20.1165 94.1726 19.9988 94.1024C19.8812 94.0315 19.7346 93.9961 19.5592 93.9961H19.1251V95.7588ZM23.8346 94.8775C23.8346 95.1142 23.7918 95.3189 23.7063 95.4913C23.6208 95.6638 23.5035 95.7968 23.3544 95.8904C23.2053 95.9839 23.035 96.0307 22.8436 96.0307C22.6521 96.0307 22.4818 95.9839 22.3327 95.8904C22.1836 95.7968 22.0663 95.6638 21.9808 95.4913C21.8953 95.3189 21.8526 95.1142 21.8526 94.8775C21.8526 94.6407 21.8953 94.436 21.9808 94.2636C22.0663 94.0911 22.1836 93.9581 22.3327 93.8645C22.4818 93.771 22.6521 93.7242 22.8436 93.7242C23.035 93.7242 23.2053 93.771 23.3544 93.8645C23.5035 93.9581 23.6208 94.0911 23.7063 94.2636C23.7918 94.436 23.8346 94.6407 23.8346 94.8775ZM23.5715 94.8775C23.5715 94.6831 23.5389 94.519 23.4739 94.3852C23.4096 94.2515 23.3223 94.1503 23.2119 94.0816C23.1023 94.0129 22.9795 93.9785 22.8436 93.9785C22.7076 93.9785 22.5845 94.0129 22.4741 94.0816C22.3645 94.1503 22.2772 94.2515 22.2121 94.3852C22.1478 94.519 22.1157 94.6831 22.1157 94.8775C22.1157 95.0719 22.1478 95.2359 22.2121 95.3697C22.2772 95.5034 22.3645 95.6046 22.4741 95.6733C22.5845 95.742 22.7076 95.7764 22.8436 95.7764C22.9795 95.7764 23.1023 95.742 23.2119 95.6733C23.3223 95.6046 23.4096 95.5034 23.4739 95.3697C23.5389 95.2359 23.5715 95.0719 23.5715 94.8775ZM26.072 93.7549V96H25.8089L24.5855 94.2373H24.5636V96H24.2917V93.7549H24.5548L25.7826 95.522H25.8045V93.7549H26.072Z" fill="white"/>
<rect x="3" y="15" width="63" height="12" fill="#3F8BD1"/>
<rect id='ledoff' x="37" y="92" width="17" height="5" rx="2.5" fill="#A77121"/>
<path d="M40.2719 96V93.7549H40.5437V95.7588H41.5873V96H40.2719ZM42.0083 96V93.7549H43.3633V93.9961H42.2802V94.7547H43.2931V94.9958H42.2802V95.7588H43.3808V96H42.0083ZM44.5461 96H43.8533V93.7549H44.5768C44.7946 93.7549 44.9809 93.7999 45.1359 93.8897C45.2908 93.9789 45.4096 94.1072 45.4921 94.2745C45.5747 94.4412 45.616 94.6407 45.616 94.8731C45.616 95.1069 45.5744 95.3083 45.491 95.4771C45.4077 95.6452 45.2864 95.7745 45.1271 95.8652C44.9678 95.9551 44.7741 96 44.5461 96ZM44.1251 95.7588H44.5286C44.7142 95.7588 44.868 95.723 44.9901 95.6514C45.1121 95.5798 45.2031 95.4778 45.263 95.3455C45.323 95.2133 45.3529 95.0558 45.3529 94.8731C45.3529 94.6918 45.3233 94.5358 45.2641 94.405C45.2049 94.2734 45.1165 94.1726 44.9988 94.1024C44.8812 94.0315 44.7346 93.9961 44.5592 93.9961H44.1251V95.7588ZM48.8346 94.8775C48.8346 95.1142 48.7918 95.3189 48.7063 95.4913C48.6208 95.6638 48.5035 95.7968 48.3544 95.8904C48.2053 95.9839 48.035 96.0307 47.8436 96.0307C47.6521 96.0307 47.4818 95.9839 47.3327 95.8904C47.1836 95.7968 47.0663 95.6638 46.9808 95.4913C46.8953 95.3189 46.8526 95.1142 46.8526 94.8775C46.8526 94.6407 46.8953 94.436 46.9808 94.2636C47.0663 94.0911 47.1836 93.9581 47.3327 93.8645C47.4818 93.771 47.6521 93.7242 47.8436 93.7242C48.035 93.7242 48.2053 93.771 48.3544 93.8645C48.5035 93.9581 48.6208 94.0911 48.7063 94.2636C48.7918 94.436 48.8346 94.6407 48.8346 94.8775ZM48.5715 94.8775C48.5715 94.6831 48.5389 94.519 48.4739 94.3852C48.4096 94.2515 48.3223 94.1503 48.2119 94.0816C48.1023 94.0129 47.9795 93.9785 47.8436 93.9785C47.7076 93.9785 47.5845 94.0129 47.4741 94.0816C47.3645 94.1503 47.2772 94.2515 47.2121 94.3852C47.1478 94.519 47.1157 94.6831 47.1157 94.8775C47.1157 95.0719 47.1478 95.2359 47.2121 95.3697C47.2772 95.5034 47.3645 95.6046 47.4741 95.6733C47.5845 95.742 47.7076 95.7764 47.8436 95.7764C47.9795 95.7764 48.1023 95.742 48.2119 95.6733C48.3223 95.6046 48.4096 95.5034 48.4739 95.3697C48.5389 95.2359 48.5715 95.0719 48.5715 94.8775ZM49.2917 96V93.7549H50.6379V93.9961H49.5636V94.7547H50.537V94.9958H49.5636V96H49.2917ZM51.1035 96V93.7549H52.4497V93.9961H51.3754V94.7547H52.3488V94.9958H51.3754V96H51.1035Z" fill="white"/>
<path d="M54.8309 14.2215H56.4812V11.7793H55.9311V11.5209H55.356V11.7709H54.8225L54.8309 14.2215Z" fill="#F6F6F6"/>
<path d="M6.27187 25V22.7549H7.05677C7.21317 22.7549 7.34216 22.7819 7.44374 22.836C7.54533 22.8894 7.62097 22.9614 7.67066 23.052C7.72036 23.1419 7.74521 23.2416 7.74521 23.3513C7.74521 23.4477 7.72803 23.5274 7.69368 23.5902C7.66007 23.6531 7.61549 23.7028 7.55994 23.7393C7.50513 23.7759 7.44557 23.8029 7.38126 23.8205V23.8424C7.44995 23.8468 7.51902 23.8709 7.58845 23.9147C7.65787 23.9586 7.71597 24.0214 7.76275 24.1033C7.80952 24.1851 7.83291 24.2853 7.83291 24.4036C7.83291 24.5162 7.80733 24.6174 7.75617 24.7073C7.70501 24.7972 7.62426 24.8685 7.5139 24.9211C7.40355 24.9737 7.25994 25 7.08308 25H6.27187ZM6.54373 24.7588H7.08308C7.26067 24.7588 7.38674 24.7245 7.46128 24.6558C7.53656 24.5864 7.57419 24.5023 7.57419 24.4036C7.57419 24.3276 7.55483 24.2575 7.51609 24.1932C7.47736 24.1281 7.42218 24.0762 7.35056 24.0375C7.27894 23.998 7.19417 23.9783 7.09624 23.9783H6.54373V24.7588ZM6.54373 23.7415H7.048C7.12985 23.7415 7.20367 23.7254 7.26944 23.6933C7.33595 23.6611 7.38857 23.6158 7.4273 23.5574C7.46676 23.4989 7.4865 23.4302 7.4865 23.3513C7.4865 23.2526 7.45215 23.1689 7.38345 23.1002C7.31475 23.0308 7.20586 22.9961 7.05677 22.9961H6.54373V23.7415ZM8.50325 22.7549V25H8.24454V22.7549H8.50325ZM10.0383 24.3116V23.3162H10.297V25H10.0383V24.715H10.0207C9.98125 24.8005 9.91987 24.8732 9.83655 24.9331C9.75324 24.9923 9.648 25.0219 9.52084 25.0219C9.4156 25.0219 9.32205 24.9989 9.2402 24.9529C9.15835 24.9061 9.09403 24.8359 9.04726 24.7424C9.00049 24.6481 8.9771 24.5293 8.9771 24.3861V23.3162H9.23581V24.3686C9.23581 24.4913 9.27016 24.5893 9.33886 24.6624C9.40829 24.7354 9.49672 24.772 9.60415 24.772C9.66846 24.772 9.73387 24.7555 9.80038 24.7227C9.86761 24.6898 9.92388 24.6393 9.9692 24.5714C10.0152 24.5034 10.0383 24.4168 10.0383 24.3116ZM11.4768 25.0351C11.3146 25.0351 11.1746 24.9993 11.0569 24.9276C10.94 24.8553 10.8497 24.7544 10.7862 24.6251C10.7233 24.495 10.6919 24.3437 10.6919 24.1712C10.6919 23.9988 10.7233 23.8468 10.7862 23.7152C10.8497 23.5829 10.9382 23.4799 11.0515 23.4061C11.1655 23.3315 11.2985 23.2943 11.4505 23.2943C11.5382 23.2943 11.6248 23.3089 11.7103 23.3381C11.7958 23.3673 11.8736 23.4148 11.9438 23.4806C12.0139 23.5457 12.0699 23.6319 12.1115 23.7393C12.1532 23.8468 12.174 23.979 12.174 24.1362V24.2458H10.8761V24.0222H11.9109C11.9109 23.9272 11.8919 23.8424 11.8539 23.7678C11.8166 23.6933 11.7633 23.6345 11.6938 23.5913C11.6252 23.5482 11.544 23.5267 11.4505 23.5267C11.3474 23.5267 11.2583 23.5522 11.183 23.6034C11.1085 23.6538 11.0511 23.7196 11.0109 23.8007C10.9707 23.8818 10.9506 23.9688 10.9506 24.0616V24.2107C10.9506 24.3379 10.9725 24.4457 11.0164 24.5341C11.061 24.6218 11.1227 24.6887 11.2016 24.7347C11.2806 24.78 11.3723 24.8027 11.4768 24.8027C11.5448 24.8027 11.6061 24.7932 11.661 24.7742C11.7165 24.7544 11.7644 24.7252 11.8046 24.6865C11.8448 24.647 11.8758 24.598 11.8977 24.5396L12.1477 24.6097C12.1214 24.6945 12.0772 24.7691 12.015 24.8334C11.9529 24.897 11.8762 24.9466 11.7848 24.9825C11.6935 25.0175 11.5908 25.0351 11.4768 25.0351ZM13.2998 23.3162V23.5354H12.4272V23.3162H13.2998ZM12.6816 22.9128H12.9403V24.5177C12.9403 24.5907 12.9509 24.6456 12.9721 24.6821C12.994 24.7179 13.0218 24.742 13.0554 24.7544C13.0897 24.7661 13.1259 24.772 13.1639 24.772C13.1924 24.772 13.2158 24.7705 13.2341 24.7676C13.2523 24.7639 13.2669 24.761 13.2779 24.7588L13.3305 24.9912C13.313 24.9978 13.2885 25.0044 13.2571 25.011C13.2257 25.0183 13.1858 25.0219 13.1376 25.0219C13.0645 25.0219 12.9929 25.0062 12.9227 24.9748C12.8533 24.9434 12.7956 24.8955 12.7495 24.8312C12.7042 24.7669 12.6816 24.6857 12.6816 24.5878V22.9128ZM14.355 25.0351C14.2029 25.0351 14.0696 24.9989 13.9548 24.9266C13.8408 24.8542 13.7517 24.753 13.6874 24.6229C13.6238 24.4928 13.592 24.3408 13.592 24.1669C13.592 23.9915 13.6238 23.8384 13.6874 23.7075C13.7517 23.5767 13.8408 23.4751 13.9548 23.4028C14.0696 23.3304 14.2029 23.2943 14.355 23.2943C14.507 23.2943 14.64 23.3304 14.754 23.4028C14.8687 23.4751 14.9579 23.5767 15.0215 23.7075C15.0858 23.8384 15.1179 23.9915 15.1179 24.1669C15.1179 24.3408 15.0858 24.4928 15.0215 24.6229C14.9579 24.753 14.8687 24.8542 14.754 24.9266C14.64 24.9989 14.507 25.0351 14.355 25.0351ZM14.355 24.8027C14.4704 24.8027 14.5654 24.7731 14.64 24.7139C14.7145 24.6547 14.7697 24.5769 14.8055 24.4804C14.8413 24.3839 14.8592 24.2794 14.8592 24.1669C14.8592 24.0543 14.8413 23.9494 14.8055 23.8522C14.7697 23.755 14.7145 23.6765 14.64 23.6166C14.5654 23.5566 14.4704 23.5267 14.355 23.5267C14.2395 23.5267 14.1445 23.5566 14.0699 23.6166C13.9954 23.6765 13.9402 23.755 13.9044 23.8522C13.8686 23.9494 13.8507 24.0543 13.8507 24.1669C13.8507 24.2794 13.8686 24.3839 13.9044 24.4804C13.9402 24.5769 13.9954 24.6547 14.0699 24.7139C14.1445 24.7731 14.2395 24.8027 14.355 24.8027ZM16.1969 25.0351C16.0449 25.0351 15.9115 24.9989 15.7968 24.9266C15.6828 24.8542 15.5936 24.753 15.5293 24.6229C15.4657 24.4928 15.4339 24.3408 15.4339 24.1669C15.4339 23.9915 15.4657 23.8384 15.5293 23.7075C15.5936 23.5767 15.6828 23.4751 15.7968 23.4028C15.9115 23.3304 16.0449 23.2943 16.1969 23.2943C16.3489 23.2943 16.4819 23.3304 16.5959 23.4028C16.7107 23.4751 16.7998 23.5767 16.8634 23.7075C16.9277 23.8384 16.9599 23.9915 16.9599 24.1669C16.9599 24.3408 16.9277 24.4928 16.8634 24.6229C16.7998 24.753 16.7107 24.8542 16.5959 24.9266C16.4819 24.9989 16.3489 25.0351 16.1969 25.0351ZM16.1969 24.8027C16.3124 24.8027 16.4074 24.7731 16.4819 24.7139C16.5565 24.6547 16.6117 24.5769 16.6475 24.4804C16.6833 24.3839 16.7012 24.2794 16.7012 24.1669C16.7012 24.0543 16.6833 23.9494 16.6475 23.8522C16.6117 23.755 16.5565 23.6765 16.4819 23.6166C16.4074 23.5566 16.3124 23.5267 16.1969 23.5267C16.0814 23.5267 15.9864 23.5566 15.9119 23.6166C15.8373 23.6765 15.7822 23.755 15.7464 23.8522C15.7105 23.9494 15.6926 24.0543 15.6926 24.1669C15.6926 24.2794 15.7105 24.3839 15.7464 24.4804C15.7822 24.5769 15.8373 24.6547 15.9119 24.7139C15.9864 24.7731 16.0814 24.8027 16.1969 24.8027ZM18.0871 23.3162V23.5354H17.2145V23.3162H18.0871ZM17.4688 22.9128H17.7275V24.5177C17.7275 24.5907 17.7381 24.6456 17.7593 24.6821C17.7812 24.7179 17.809 24.742 17.8426 24.7544C17.877 24.7661 17.9132 24.772 17.9512 24.772C17.9797 24.772 18.0031 24.7705 18.0213 24.7676C18.0396 24.7639 18.0542 24.761 18.0652 24.7588L18.1178 24.9912C18.1003 24.9978 18.0758 25.0044 18.0443 25.011C18.0129 25.0183 17.9731 25.0219 17.9249 25.0219C17.8518 25.0219 17.7801 25.0062 17.71 24.9748C17.6406 24.9434 17.5828 24.8955 17.5368 24.8312C17.4915 24.7669 17.4688 24.6857 17.4688 24.5878V22.9128ZM18.7711 23.9871V25H18.5124V22.7549H18.7711V23.5793H18.7931C18.8325 23.4923 18.8917 23.4232 18.9707 23.3721C19.0503 23.3202 19.1563 23.2943 19.2886 23.2943C19.4033 23.2943 19.5038 23.3173 19.59 23.3633C19.6763 23.4086 19.7431 23.4784 19.7906 23.5727C19.8389 23.6662 19.863 23.7854 19.863 23.9301V25H19.6043V23.9476C19.6043 23.8139 19.5696 23.7105 19.5001 23.6374C19.4314 23.5636 19.3361 23.5267 19.214 23.5267C19.1293 23.5267 19.0532 23.5446 18.986 23.5804C18.9195 23.6162 18.8669 23.6684 18.8282 23.7371C18.7901 23.8058 18.7711 23.8891 18.7711 23.9871ZM21.3317 25H21.0467L21.871 22.7549H22.1517L22.976 25H22.691L22.0201 23.1101H22.0026L21.3317 25ZM21.4369 24.123H22.5858V24.3642H21.4369V24.123ZM23.2907 25.6314V23.3162H23.5406V23.5837H23.5713C23.5903 23.5544 23.6166 23.5172 23.6502 23.4718C23.6846 23.4258 23.7335 23.3849 23.7971 23.3491C23.8614 23.3125 23.9484 23.2943 24.058 23.2943C24.1998 23.2943 24.3248 23.3297 24.4329 23.4006C24.5411 23.4715 24.6255 23.572 24.6862 23.7021C24.7468 23.8321 24.7771 23.9856 24.7771 24.1625C24.7771 24.3408 24.7468 24.4954 24.6862 24.6262C24.6255 24.7563 24.5415 24.8571 24.434 24.9287C24.3266 24.9996 24.2027 25.0351 24.0624 25.0351C23.9542 25.0351 23.8676 25.0172 23.8026 24.9814C23.7376 24.9448 23.6875 24.9035 23.6524 24.8575C23.6173 24.8107 23.5903 24.772 23.5713 24.7413H23.5494V25.6314H23.2907ZM23.545 24.1581C23.545 24.2853 23.5636 24.3974 23.6009 24.4946C23.6382 24.5911 23.6926 24.6667 23.7642 24.7216C23.8358 24.7756 23.9235 24.8027 24.0273 24.8027C24.1355 24.8027 24.2257 24.7742 24.2981 24.7172C24.3712 24.6594 24.426 24.582 24.4625 24.4848C24.4998 24.3868 24.5184 24.2779 24.5184 24.1581C24.5184 24.0397 24.5002 23.933 24.4636 23.838C24.4278 23.7423 24.3734 23.6666 24.3003 23.6111C24.2279 23.5548 24.1369 23.5267 24.0273 23.5267C23.9221 23.5267 23.8337 23.5533 23.762 23.6067C23.6904 23.6593 23.6363 23.7331 23.5998 23.8281C23.5632 23.9224 23.545 24.0324 23.545 24.1581ZM25.1718 25.6314V23.3162H25.4217V23.5837H25.4524C25.4714 23.5544 25.4977 23.5172 25.5314 23.4718C25.5657 23.4258 25.6147 23.3849 25.6783 23.3491C25.7426 23.3125 25.8295 23.2943 25.9392 23.2943C26.0809 23.2943 26.2059 23.3297 26.3141 23.4006C26.4222 23.4715 26.5066 23.572 26.5673 23.7021C26.628 23.8321 26.6583 23.9856 26.6583 24.1625C26.6583 24.3408 26.628 24.4954 26.5673 24.6262C26.5066 24.7563 26.4226 24.8571 26.3152 24.9287C26.2077 24.9996 26.0839 25.0351 25.9435 25.0351C25.8354 25.0351 25.7488 25.0172 25.6837 24.9814C25.6187 24.9448 25.5686 24.9035 25.5335 24.8575C25.4985 24.8107 25.4714 24.772 25.4524 24.7413H25.4305V25.6314H25.1718ZM25.4261 24.1581C25.4261 24.2853 25.4448 24.3974 25.482 24.4946C25.5193 24.5911 25.5737 24.6667 25.6454 24.7216C25.717 24.7756 25.8047 24.8027 25.9085 24.8027C26.0166 24.8027 26.1069 24.7742 26.1792 24.7172C26.2523 24.6594 26.3071 24.582 26.3437 24.4848C26.3809 24.3868 26.3996 24.2779 26.3996 24.1581C26.3996 24.0397 26.3813 23.933 26.3448 23.838C26.309 23.7423 26.2545 23.6666 26.1814 23.6111C26.1091 23.5548 26.0181 23.5267 25.9085 23.5267C25.8032 23.5267 25.7148 23.5533 25.6432 23.6067C25.5716 23.6593 25.5175 23.7331 25.4809 23.8281C25.4444 23.9224 25.4261 24.0324 25.4261 24.1581Z" fill="white"/>
<defs>
<linearGradient id="paint0_linear_581_88" x1="33.7228" y1="4.27872" x2="36.0672" y2="6.41008" gradientUnits="userSpaceOnUse">
<stop/>
<stop offset="1" stop-opacity="0"/>
</linearGradient>
<linearGradient id="paint1_linear_581_88" x1="36.8647" y1="8.26835" x2="34.9737" y2="6.23213" gradientUnits="userSpaceOnUse">
<stop stop-color="white"/>
<stop offset="1" stop-color="white" stop-opacity="0"/>
</linearGradient>
<linearGradient id="paint2_linear_581_88" x1="10.8335" y1="5.35123" x2="12.0322" y2="6.44088" gradientUnits="userSpaceOnUse">
<stop/>
<stop offset="1" stop-opacity="0"/>
</linearGradient>
<linearGradient id="paint3_linear_581_88" x1="12.4528" y1="7.41397" x2="11.486" y2="6.37295" gradientUnits="userSpaceOnUse">
<stop stop-color="white"/>
<stop offset="1" stop-color="white" stop-opacity="0"/>
</linearGradient>
</defs>
</svg>
